<mxfile host="app.diagrams.net" modified="2024-06-16T21:07:57.067Z" agent="Mozilla/5.0 (Windows NT 10.0; Win64; x64; rv:126.0) Gecko/20100101 Firefox/126.0" etag="K56qaE674jubT_GLFgB9" version="24.5.4" type="github">
  <diagram name="Página-1" id="uJtDlUqMzZ6CCFdSyDVP">
    <mxGraphModel dx="1687" dy="878" grid="1" gridSize="10" guides="1" tooltips="1" connect="1" arrows="1" fold="1" page="1" pageScale="1" pageWidth="827" pageHeight="1169" math="0" shadow="0">
      <root>
        <mxCell id="0" />
        <mxCell id="1" parent="0" />
        <mxCell id="D3V0gZ4RYxJO8HPayPW8-9" style="edgeStyle=orthogonalEdgeStyle;rounded=0;orthogonalLoop=1;jettySize=auto;html=1;entryX=0;entryY=0.5;entryDx=0;entryDy=0;" edge="1" parent="1" source="D3V0gZ4RYxJO8HPayPW8-1" target="D3V0gZ4RYxJO8HPayPW8-6">
          <mxGeometry relative="1" as="geometry" />
        </mxCell>
        <mxCell id="D3V0gZ4RYxJO8HPayPW8-13" style="edgeStyle=orthogonalEdgeStyle;rounded=0;orthogonalLoop=1;jettySize=auto;html=1;entryX=0;entryY=0.5;entryDx=0;entryDy=0;" edge="1" parent="1" source="D3V0gZ4RYxJO8HPayPW8-1" target="D3V0gZ4RYxJO8HPayPW8-7">
          <mxGeometry relative="1" as="geometry" />
        </mxCell>
        <mxCell id="D3V0gZ4RYxJO8HPayPW8-16" style="edgeStyle=orthogonalEdgeStyle;rounded=0;orthogonalLoop=1;jettySize=auto;html=1;entryX=0;entryY=0.5;entryDx=0;entryDy=0;" edge="1" parent="1" source="D3V0gZ4RYxJO8HPayPW8-1" target="D3V0gZ4RYxJO8HPayPW8-12">
          <mxGeometry relative="1" as="geometry" />
        </mxCell>
        <mxCell id="D3V0gZ4RYxJO8HPayPW8-34" style="edgeStyle=orthogonalEdgeStyle;rounded=0;orthogonalLoop=1;jettySize=auto;html=1;entryX=0;entryY=0.5;entryDx=0;entryDy=0;" edge="1" parent="1" source="D3V0gZ4RYxJO8HPayPW8-1" target="D3V0gZ4RYxJO8HPayPW8-33">
          <mxGeometry relative="1" as="geometry" />
        </mxCell>
        <mxCell id="D3V0gZ4RYxJO8HPayPW8-39" style="edgeStyle=orthogonalEdgeStyle;rounded=0;orthogonalLoop=1;jettySize=auto;html=1;entryX=0;entryY=0.5;entryDx=0;entryDy=0;" edge="1" parent="1" source="D3V0gZ4RYxJO8HPayPW8-1" target="D3V0gZ4RYxJO8HPayPW8-37">
          <mxGeometry relative="1" as="geometry" />
        </mxCell>
        <mxCell id="D3V0gZ4RYxJO8HPayPW8-46" style="edgeStyle=orthogonalEdgeStyle;rounded=0;orthogonalLoop=1;jettySize=auto;html=1;entryX=0;entryY=0.5;entryDx=0;entryDy=0;" edge="1" parent="1" source="D3V0gZ4RYxJO8HPayPW8-1" target="D3V0gZ4RYxJO8HPayPW8-43">
          <mxGeometry relative="1" as="geometry" />
        </mxCell>
        <mxCell id="D3V0gZ4RYxJO8HPayPW8-1" value="Usuário" style="rounded=0;whiteSpace=wrap;html=1;" vertex="1" parent="1">
          <mxGeometry x="90" y="410" width="120" height="60" as="geometry" />
        </mxCell>
        <mxCell id="D3V0gZ4RYxJO8HPayPW8-28" value="" style="edgeStyle=orthogonalEdgeStyle;rounded=0;orthogonalLoop=1;jettySize=auto;html=1;" edge="1" parent="1" source="D3V0gZ4RYxJO8HPayPW8-3" target="D3V0gZ4RYxJO8HPayPW8-19">
          <mxGeometry relative="1" as="geometry" />
        </mxCell>
        <mxCell id="D3V0gZ4RYxJO8HPayPW8-3" value="Evento" style="rounded=0;whiteSpace=wrap;html=1;" vertex="1" parent="1">
          <mxGeometry x="470" y="120" width="120" height="60" as="geometry" />
        </mxCell>
        <mxCell id="D3V0gZ4RYxJO8HPayPW8-24" value="" style="edgeStyle=orthogonalEdgeStyle;rounded=0;orthogonalLoop=1;jettySize=auto;html=1;" edge="1" parent="1" source="D3V0gZ4RYxJO8HPayPW8-5" target="D3V0gZ4RYxJO8HPayPW8-22">
          <mxGeometry relative="1" as="geometry" />
        </mxCell>
        <mxCell id="D3V0gZ4RYxJO8HPayPW8-5" value="Pergunta" style="rounded=0;whiteSpace=wrap;html=1;" vertex="1" parent="1">
          <mxGeometry x="490" y="410" width="120" height="60" as="geometry" />
        </mxCell>
        <mxCell id="D3V0gZ4RYxJO8HPayPW8-11" style="edgeStyle=orthogonalEdgeStyle;rounded=0;orthogonalLoop=1;jettySize=auto;html=1;" edge="1" parent="1" source="D3V0gZ4RYxJO8HPayPW8-6" target="D3V0gZ4RYxJO8HPayPW8-3">
          <mxGeometry relative="1" as="geometry" />
        </mxCell>
        <mxCell id="D3V0gZ4RYxJO8HPayPW8-6" value="&lt;font style=&quot;font-size: 11px;&quot;&gt;Inscrever-se em&lt;/font&gt;" style="rhombus;whiteSpace=wrap;html=1;" vertex="1" parent="1">
          <mxGeometry x="330" y="110" width="80" height="80" as="geometry" />
        </mxCell>
        <mxCell id="D3V0gZ4RYxJO8HPayPW8-14" style="edgeStyle=orthogonalEdgeStyle;rounded=0;orthogonalLoop=1;jettySize=auto;html=1;entryX=0.5;entryY=1;entryDx=0;entryDy=0;" edge="1" parent="1" source="D3V0gZ4RYxJO8HPayPW8-7" target="D3V0gZ4RYxJO8HPayPW8-3">
          <mxGeometry relative="1" as="geometry" />
        </mxCell>
        <mxCell id="D3V0gZ4RYxJO8HPayPW8-7" value="Avalia" style="rhombus;whiteSpace=wrap;html=1;" vertex="1" parent="1">
          <mxGeometry x="330" y="260" width="80" height="80" as="geometry" />
        </mxCell>
        <mxCell id="D3V0gZ4RYxJO8HPayPW8-10" value="(n : n)" style="text;html=1;align=center;verticalAlign=middle;whiteSpace=wrap;rounded=0;" vertex="1" parent="1">
          <mxGeometry x="340" y="80" width="60" height="30" as="geometry" />
        </mxCell>
        <mxCell id="D3V0gZ4RYxJO8HPayPW8-17" style="edgeStyle=orthogonalEdgeStyle;rounded=0;orthogonalLoop=1;jettySize=auto;html=1;entryX=0;entryY=0.5;entryDx=0;entryDy=0;" edge="1" parent="1" source="D3V0gZ4RYxJO8HPayPW8-12" target="D3V0gZ4RYxJO8HPayPW8-5">
          <mxGeometry relative="1" as="geometry" />
        </mxCell>
        <mxCell id="D3V0gZ4RYxJO8HPayPW8-12" value="Responde" style="rhombus;whiteSpace=wrap;html=1;" vertex="1" parent="1">
          <mxGeometry x="330" y="400" width="80" height="80" as="geometry" />
        </mxCell>
        <mxCell id="D3V0gZ4RYxJO8HPayPW8-15" value="(n : n)" style="text;html=1;align=center;verticalAlign=middle;whiteSpace=wrap;rounded=0;" vertex="1" parent="1">
          <mxGeometry x="340" y="230" width="60" height="30" as="geometry" />
        </mxCell>
        <mxCell id="D3V0gZ4RYxJO8HPayPW8-18" value="(1 : n)" style="text;html=1;align=center;verticalAlign=middle;whiteSpace=wrap;rounded=0;" vertex="1" parent="1">
          <mxGeometry x="340" y="515" width="60" height="30" as="geometry" />
        </mxCell>
        <mxCell id="D3V0gZ4RYxJO8HPayPW8-29" value="" style="edgeStyle=orthogonalEdgeStyle;rounded=0;orthogonalLoop=1;jettySize=auto;html=1;" edge="1" parent="1" source="D3V0gZ4RYxJO8HPayPW8-19" target="D3V0gZ4RYxJO8HPayPW8-20">
          <mxGeometry relative="1" as="geometry" />
        </mxCell>
        <mxCell id="D3V0gZ4RYxJO8HPayPW8-19" value="&lt;font style=&quot;font-size: 11px;&quot;&gt;Categorizado por&lt;br&gt;&lt;/font&gt;" style="rhombus;whiteSpace=wrap;html=1;" vertex="1" parent="1">
          <mxGeometry x="670" y="110" width="80" height="80" as="geometry" />
        </mxCell>
        <mxCell id="D3V0gZ4RYxJO8HPayPW8-20" value="Tag" style="rounded=0;whiteSpace=wrap;html=1;" vertex="1" parent="1">
          <mxGeometry x="827" y="120" width="120" height="60" as="geometry" />
        </mxCell>
        <mxCell id="D3V0gZ4RYxJO8HPayPW8-25" value="" style="edgeStyle=orthogonalEdgeStyle;rounded=0;orthogonalLoop=1;jettySize=auto;html=1;" edge="1" parent="1" source="D3V0gZ4RYxJO8HPayPW8-22" target="D3V0gZ4RYxJO8HPayPW8-23">
          <mxGeometry relative="1" as="geometry" />
        </mxCell>
        <mxCell id="D3V0gZ4RYxJO8HPayPW8-22" value="Possui" style="rhombus;whiteSpace=wrap;html=1;" vertex="1" parent="1">
          <mxGeometry x="690" y="400" width="80" height="80" as="geometry" />
        </mxCell>
        <mxCell id="D3V0gZ4RYxJO8HPayPW8-23" value="Opções" style="rounded=0;whiteSpace=wrap;html=1;" vertex="1" parent="1">
          <mxGeometry x="860" y="410" width="120" height="60" as="geometry" />
        </mxCell>
        <mxCell id="D3V0gZ4RYxJO8HPayPW8-26" value="(1 : n)" style="text;html=1;align=center;verticalAlign=middle;whiteSpace=wrap;rounded=0;" vertex="1" parent="1">
          <mxGeometry x="700" y="370" width="60" height="30" as="geometry" />
        </mxCell>
        <mxCell id="D3V0gZ4RYxJO8HPayPW8-30" value="(n : n)" style="text;html=1;align=center;verticalAlign=middle;whiteSpace=wrap;rounded=0;" vertex="1" parent="1">
          <mxGeometry x="680" y="80" width="60" height="30" as="geometry" />
        </mxCell>
        <mxCell id="D3V0gZ4RYxJO8HPayPW8-31" value="Sessões" style="rounded=0;whiteSpace=wrap;html=1;" vertex="1" parent="1">
          <mxGeometry x="500" y="555" width="120" height="60" as="geometry" />
        </mxCell>
        <mxCell id="D3V0gZ4RYxJO8HPayPW8-35" value="" style="edgeStyle=orthogonalEdgeStyle;rounded=0;orthogonalLoop=1;jettySize=auto;html=1;" edge="1" parent="1" source="D3V0gZ4RYxJO8HPayPW8-33" target="D3V0gZ4RYxJO8HPayPW8-31">
          <mxGeometry relative="1" as="geometry" />
        </mxCell>
        <mxCell id="D3V0gZ4RYxJO8HPayPW8-33" value="Autentica" style="rhombus;whiteSpace=wrap;html=1;" vertex="1" parent="1">
          <mxGeometry x="330" y="545" width="80" height="80" as="geometry" />
        </mxCell>
        <mxCell id="D3V0gZ4RYxJO8HPayPW8-36" value="(n : n)" style="text;html=1;align=center;verticalAlign=middle;whiteSpace=wrap;rounded=0;" vertex="1" parent="1">
          <mxGeometry x="340" y="370" width="60" height="30" as="geometry" />
        </mxCell>
        <mxCell id="D3V0gZ4RYxJO8HPayPW8-40" value="" style="edgeStyle=orthogonalEdgeStyle;rounded=0;orthogonalLoop=1;jettySize=auto;html=1;" edge="1" parent="1" source="D3V0gZ4RYxJO8HPayPW8-37" target="D3V0gZ4RYxJO8HPayPW8-38">
          <mxGeometry relative="1" as="geometry" />
        </mxCell>
        <mxCell id="D3V0gZ4RYxJO8HPayPW8-37" value="Registra" style="rhombus;whiteSpace=wrap;html=1;" vertex="1" parent="1">
          <mxGeometry x="330" y="680" width="80" height="80" as="geometry" />
        </mxCell>
        <mxCell id="D3V0gZ4RYxJO8HPayPW8-38" value="Log atividade" style="rounded=0;whiteSpace=wrap;html=1;" vertex="1" parent="1">
          <mxGeometry x="500" y="690" width="120" height="60" as="geometry" />
        </mxCell>
        <mxCell id="D3V0gZ4RYxJO8HPayPW8-41" value="(1 : n)" style="text;html=1;align=center;verticalAlign=middle;whiteSpace=wrap;rounded=0;" vertex="1" parent="1">
          <mxGeometry x="340" y="650" width="60" height="30" as="geometry" />
        </mxCell>
        <mxCell id="D3V0gZ4RYxJO8HPayPW8-42" value="Planos" style="rounded=0;whiteSpace=wrap;html=1;" vertex="1" parent="1">
          <mxGeometry x="510" y="820" width="120" height="60" as="geometry" />
        </mxCell>
        <mxCell id="D3V0gZ4RYxJO8HPayPW8-47" value="" style="edgeStyle=orthogonalEdgeStyle;rounded=0;orthogonalLoop=1;jettySize=auto;html=1;" edge="1" parent="1" source="D3V0gZ4RYxJO8HPayPW8-43" target="D3V0gZ4RYxJO8HPayPW8-42">
          <mxGeometry relative="1" as="geometry" />
        </mxCell>
        <mxCell id="D3V0gZ4RYxJO8HPayPW8-43" value="Escolhe" style="rhombus;whiteSpace=wrap;html=1;" vertex="1" parent="1">
          <mxGeometry x="330" y="810" width="80" height="80" as="geometry" />
        </mxCell>
        <mxCell id="D3V0gZ4RYxJO8HPayPW8-44" value="(n : 1)" style="text;html=1;align=center;verticalAlign=middle;whiteSpace=wrap;rounded=0;" vertex="1" parent="1">
          <mxGeometry x="340" y="780" width="60" height="30" as="geometry" />
        </mxCell>
      </root>
    </mxGraphModel>
  </diagram>
</mxfile>
